<?xml version="1.0" encoding="utf-8"?>
<!-- Generator: Adobe Illustrator 27.1.0, SVG Export Plug-In . SVG Version: 6.00 Build 0)  -->
<svg version="1.1" id="Layer_1" xmlns="http://www.w3.org/2000/svg" xmlns:xlink="http://www.w3.org/1999/xlink" x="0px" y="0px"
	 viewBox="0 0 558.1 510" style="enable-background:new 0 0 558.1 510;" xml:space="preserve">
<style type="text/css">
	.st0{fill:#FFFFFF;}
</style>
<path class="st0" d="M106.5,65.5H49.5L64.2,3.4h195.7l-14.7,62.1H188L85.3,506.6H3.8L106.5,65.5z"/>
<path class="st0" d="M223,83.1h78.6c37.5,0,62.3,12.4,62.3,56.1c0,18.8-3.1,39.9-7.4,59.8c-5.4,26.1-12.8,53.6-30.2,69.7
	c-6,5.6-14.5,9.3-20.5,11.2v0.6c14.5,6.2,22.4,19.9,22.4,38.5c0,12.4-3.1,29.2-7.9,53c-9.7,48-18.2,89.6-41,112.6
	c-16.3,16.8-38.1,21.9-61,21.9h-82.3L223,83.1z M221.3,454.3c11.4,0,18.2-5.6,21.7-14.3c5.4-13.2,15.1-57.3,16.8-67.3
	c2.3-11.8,7.9-37.9,7.9-49.2c0-9.3-6-12.4-15.1-12.4h-16.3l-29.6,143.2L221.3,454.3L221.3,454.3z M258.7,262.5
	c8.5,0,16.8-3.1,22.4-12.4c6-10.1,10.3-27.5,15.1-51.1c3.7-17.4,7.4-41,7.4-50.5c0-6.8-3.1-13.2-14.5-13.2h-16.3l-25.9,127h11.8
	V262.5z"/>
<path class="st0" d="M306.5,488.8L454.5,135h-68.9l10.8-51.9h139L532.3,98L383.7,451.8h68.9l-10.3,51.9h-139L306.5,488.8
	L306.5,488.8z"/>
<path class="st0" d="M315.9,65.5h-88.8l22.8-62.1h304.2l-22.8,62.1h-88.8"/>
</svg>
