<?xml version="1.0" encoding="utf-8"?>
<!-- Generator: Adobe Illustrator 27.0.1, SVG Export Plug-In . SVG Version: 6.00 Build 0)  -->
<svg version="1.1" id="Layer_1" xmlns="http://www.w3.org/2000/svg" xmlns:xlink="http://www.w3.org/1999/xlink" x="0px" y="0px"
	 viewBox="0 0 284.5 260" style="enable-background:new 0 0 284.5 260;" xml:space="preserve">
<style type="text/css">
	.st0{fill:#FFFFFF;}
</style>
<path class="st0" d="M53.1,32.1H23.6L31.2,0h101.1l-7.6,32.1H95.2L42.1,260H0L53.1,32.1z"/>
<path class="st0" d="M113.3,41.2h40.6c19.4,0,32.2,6.4,32.2,29c0,9.7-1.6,20.6-3.8,30.9c-2.8,13.5-6.6,27.7-15.6,36
	c-3.1,2.9-7.5,4.8-10.6,5.8v0.3c7.5,3.2,11.6,10.3,11.6,19.9c0,6.4-1.6,15.1-4.1,27.4c-5,24.8-9.4,46.3-21.2,58.2
	c-8.4,8.7-19.7,11.3-31.5,11.3H68.4L113.3,41.2z M112.4,233c5.9,0,9.4-2.9,11.2-7.4c2.8-6.8,7.8-29.6,8.7-34.8
	c1.2-6.1,4.1-19.6,4.1-25.4c0-4.8-3.1-6.4-7.8-6.4h-8.4l-15.3,74L112.4,233L112.4,233z M131.7,133.9c4.4,0,8.7-1.6,11.6-6.4
	c3.1-5.2,5.3-14.2,7.8-26.4c1.9-9,3.8-21.2,3.8-26.1c0-3.5-1.6-6.8-7.5-6.8H139l-13.4,65.6h6.1V133.9z"/>
<path class="st0" d="M156.4,250.8L232.9,68h-35.6l5.6-26.8h71.8l-1.6,7.7l-76.8,182.8h35.6l-5.3,26.8h-71.8L156.4,250.8L156.4,250.8
	z"/>
<path class="st0" d="M161.3,32.1h-45.9L127.2,0h157.2l-11.8,32.1h-45.9"/>
</svg>
