<?xml version="1.0" encoding="UTF-8"?><svg id="Layer_1" xmlns="http://www.w3.org/2000/svg" viewBox="0 0 550.3 503.2"><defs><style>.cls-1{fill:#fff;}</style></defs><path class="cls-1" d="m102.7,62.1h-57L60.4,0h195.7l-14.7,62.1h-57.2l-102.7,441.1H0L102.7,62.1Z"/><path class="cls-1" d="m219.2,79.7h78.6c37.5,0,62.3,12.4,62.3,56.1,0,18.8-3.1,39.9-7.4,59.8-5.4,26.1-12.8,53.6-30.2,69.7-6,5.6-14.5,9.3-20.5,11.2v.6c14.5,6.2,22.4,19.9,22.4,38.5,0,12.4-3.1,29.2-7.9,53-9.7,48-18.2,89.6-41,112.6-16.3,16.8-38.1,21.9-61,21.9h-82.3L219.2,79.7Zm-1.7,371.2c11.4,0,18.2-5.6,21.7-14.3,5.4-13.2,15.1-57.3,16.8-67.3,2.3-11.8,7.9-37.9,7.9-49.2,0-9.3-6-12.4-15.1-12.4h-16.3l-29.6,143.2h14.6Zm37.4-191.8c8.5,0,16.8-3.1,22.4-12.4,6-10.1,10.3-27.5,15.1-51.1,3.7-17.4,7.4-41,7.4-50.5,0-6.8-3.1-13.2-14.5-13.2h-16.3l-25.9,127h11.8v.2Z"/><path class="cls-1" d="m302.7,485.4l148-353.8h-68.9l10.8-51.9h139l-3.1,14.9-148.6,353.8h68.9l-10.3,51.9h-139l3.2-14.9h0Z"/><path class="cls-1" d="m312.1,62.1h-88.8L246.1,0h304.2l-22.8,62.1h-88.8"/></svg>